<?xml version="1.0" standalone="no"?>
<!DOCTYPE svg PUBLIC "-//W3C//DTD SVG 20010904//EN"
 "http://www.w3.org/TR/2001/REC-SVG-20010904/DTD/svg10.dtd">
<svg version="1.0" xmlns="http://www.w3.org/2000/svg"
 width="700.000000pt" height="700.000000pt" viewBox="0 0 700.000000 700.000000"
 preserveAspectRatio="xMidYMid meet">
<metadata>
Created by potrace 1.11, written by Peter Selinger 2001-2013
</metadata>
<g transform="translate(0.000000,700.000000) scale(0.100000,-0.100000)"
fill="#000000" stroke="none">
<path d="M3484 4959 c-59 -11 -106 -32 -147 -68 -32 -29 -40 -31 -74 -25 -95
19 -164 -2 -235 -71 -47 -45 -74 -91 -133 -225 -170 -382 -413 -852 -603
-1163 l-38 -60 -124 -28 c-150 -33 -150 -33 -146 -11 2 9 7 40 10 67 4 28 9
57 11 65 2 8 6 27 9 41 19 110 92 326 219 649 144 365 167 488 114 602 -61
131 -188 181 -340 133 -99 -31 -149 -89 -251 -291 -66 -132 -248 -591 -317
-799 -50 -151 -131 -458 -145 -550 -5 -27 -9 -53 -10 -57 -1 -5 -2 -16 -3 -26
0 -9 -13 -22 -28 -28 -16 -6 -55 -21 -88 -34 -85 -32 -192 -87 -249 -127 -86
-62 -175 -173 -176 -220 0 -17 -9 -25 -42 -35 -101 -29 -229 -131 -249 -198
-16 -53 3 -87 66 -119 45 -24 60 -26 170 -26 76 1 151 8 205 19 47 10 93 20
103 22 10 2 26 5 35 8 9 3 33 8 52 11 52 8 192 36 213 41 12 4 17 0 17 -13 0
-30 62 -130 114 -183 68 -70 179 -136 294 -176 53 -19 98 -34 100 -33 1 1 28
-2 60 -6 139 -19 274 4 393 67 91 48 155 105 168 152 9 29 9 27 10 -18 1 -59
31 -125 68 -152 64 -47 189 -59 303 -29 63 16 132 48 157 72 7 6 23 20 36 30
36 29 65 75 72 118 4 22 10 49 12 60 2 11 6 31 9 45 34 169 49 240 71 325 14
55 27 114 30 130 6 36 11 42 43 49 14 3 101 23 194 46 93 22 171 38 173 36 2
-1 -9 -50 -23 -107 -14 -57 -28 -115 -30 -129 -3 -14 -11 -56 -20 -95 -16 -75
-18 -86 -29 -155 -7 -44 -10 -60 -19 -110 -3 -14 -8 -50 -11 -81 -3 -31 -10
-70 -15 -87 -16 -57 -1 -92 53 -123 66 -37 184 -37 287 1 98 35 163 79 197
133 14 23 54 85 88 137 84 129 134 244 223 515 l76 230 13 -45 c7 -25 16 -65
19 -90 3 -25 7 -52 9 -60 3 -8 7 -33 10 -55 5 -35 36 -221 50 -309 3 -17 8
-38 10 -46 2 -8 7 -30 10 -49 3 -19 19 -74 35 -124 47 -142 85 -193 152 -206
64 -11 206 -7 251 8 68 23 195 101 227 139 50 59 152 280 240 517 81 218 217
608 227 653 6 23 30 37 78 46 13 2 59 14 102 26 43 12 85 23 93 25 206 49 264
74 470 206 92 59 113 79 151 145 95 168 18 292 -206 329 -45 7 -186 7 -241 0
-27 -3 -64 -8 -83 -11 -18 -2 -37 -7 -42 -10 -12 -7 -11 -1 7 63 19 64 24 181
12 238 -14 62 -12 113 6 140 42 64 2 135 -90 159 -107 28 -254 5 -388 -60
-176 -87 -272 -198 -331 -384 -44 -138 -147 -379 -163 -381 -4 0 -14 -2 -22
-4 -67 -16 -131 -27 -134 -24 -4 3 -10 39 -21 114 -11 81 -52 209 -137 430
-55 143 -72 165 -152 191 -134 45 -287 -40 -423 -237 -97 -141 -167 -297 -259
-574 -56 -169 -55 -168 -127 -180 -16 -3 -33 -8 -37 -10 -4 -2 -20 -6 -36 -9
-16 -3 -78 -17 -139 -30 -60 -14 -111 -23 -113 -21 -3 3 31 115 113 375 106
334 184 593 197 650 28 126 7 215 -64 273 -44 35 -127 56 -184 46z"/>
</g>
</svg>
