<svg width="293" height="45" viewBox="0 0 293 45" fill="none" xmlns="http://www.w3.org/2000/svg">
<path d="M28.6437 4.24799V4.34399C28.6437 4.37599 28.6437 4.39199 28.6437 4.39199C28.6757 4.39199 28.6917 4.40799 28.6917 4.43999V4.53599H28.7397L29.0277 5.30399C29.3477 6.23199 28.5157 9.11199 26.5317 13.944C24.4197 19.096 23.4437 23.112 23.6037 25.992C23.9557 28.04 25.6677 26.392 28.7397 21.048C31.1717 16.888 33.5237 12.328 35.7957 7.36799C36.0837 6.69599 36.3877 6.00799 36.7077 5.30399C37.0277 4.56799 37.4277 3.95999 37.9077 3.47999C38.9637 2.32799 40.2437 2.02399 41.7477 2.56799C42.2597 1.95999 42.8517 1.54399 43.5237 1.31999C44.2277 1.09599 44.8837 1.04799 45.4917 1.17599C46.1317 1.30399 46.6757 1.60799 47.1237 2.08799C47.5717 2.53599 47.8117 3.14399 47.8437 3.91199C47.9397 4.55199 47.6037 6.07199 46.8357 8.47199C46.0997 10.872 45.4117 13.064 44.7717 15.048C44.1317 17.032 43.4757 19.192 42.8037 21.528C41.1717 27.064 39.8757 32.28 38.9157 37.176C38.8837 38.2 38.4357 39.048 37.5717 39.72C36.7397 40.392 35.7957 40.824 34.7397 41.016C33.7157 41.24 32.7397 41.208 31.8117 40.92C30.6917 40.6 30.0997 39.8 30.0357 38.52C30.0357 38.168 30.0197 37.816 29.9877 37.464C30.0517 38.552 29.2677 39.48 27.6357 40.248C27.1877 40.472 26.7717 40.68 26.3877 40.872C24.1477 41.544 21.7957 41.4 19.3317 40.44C18.1797 39.96 17.1397 39.32 16.2117 38.52C15.3157 37.688 14.6917 36.712 14.3397 35.592C13.2197 32.008 13.4277 27.304 14.9637 21.48C15.6037 18.984 16.3877 16.552 17.3157 14.184C18.2437 11.816 18.9157 10.104 19.3317 9.04799C19.7797 7.99199 20.0997 7.27199 20.2917 6.88799C20.4837 6.47199 20.6917 6.07199 20.9157 5.68799C21.4597 4.59999 21.9237 3.86399 22.3077 3.47999L22.8837 2.95199C22.9477 2.88799 23.0117 2.85599 23.0757 2.85599C23.1397 2.82399 23.2197 2.77599 23.3157 2.71199C23.5717 2.55199 23.8437 2.43999 24.1317 2.37599L24.8037 2.23199H25.0917C26.0197 2.10399 26.8197 2.29599 27.4917 2.80799C27.4917 2.83999 27.5237 2.85599 27.5877 2.85599L27.9717 3.19199L28.1157 3.33599L28.2597 3.52799C28.2597 3.55999 28.2597 3.57599 28.2597 3.57599C28.2917 3.57599 28.3077 3.59199 28.3077 3.62399L28.3557 3.67199V3.76799C28.3877 3.76799 28.4037 3.78399 28.4037 3.81599V3.86399C28.4357 3.89599 28.4677 3.91199 28.4997 3.91199V3.95999C28.4997 3.99199 28.4997 4.00799 28.4997 4.00799C28.5317 4.00799 28.5477 4.02399 28.5477 4.05599C28.5477 4.05599 28.5637 4.07199 28.5957 4.10399V4.15199C28.5957 4.18399 28.6117 4.21599 28.6437 4.24799ZM29.9397 36.216V36.072C29.9077 36.104 29.8917 36.232 29.8917 36.456C29.8917 36.36 29.9077 36.296 29.9397 36.264V36.216Z" fill="#C6F7DF"/>
<path d="M48.3031 20.376C48.9431 18.232 49.4551 16.584 49.8391 15.432C50.2551 14.248 50.6551 13.192 51.0391 12.264C51.4231 11.336 51.8551 10.44 52.3351 9.57599C52.8471 8.71199 53.3911 7.92799 53.9671 7.22399C54.5751 6.48799 55.2151 5.91199 55.8871 5.49599C56.5591 5.07999 57.2631 4.87199 57.9991 4.87199C58.7351 4.87199 59.5031 5.15999 60.3031 5.73599C61.5831 8.93599 62.3671 11.08 62.6551 12.168C63.0391 13.768 63.3911 16.024 63.7111 18.936C63.9991 18.2 64.3191 17.432 64.6711 16.632C65.0551 15.8 65.4231 14.968 65.7751 14.136C66.7671 12.024 67.3911 10.424 67.6471 9.33599C68.3511 7.09599 69.8071 5.41599 72.0151 4.29599C73.9351 3.33599 75.7271 3.03199 77.3911 3.38399C78.0631 3.51199 78.5271 3.78399 78.7831 4.19999C79.0711 4.61599 79.0711 5.04799 78.7831 5.49599C78.5271 5.94399 78.4311 6.37599 78.4951 6.79199C78.5911 7.17599 78.6711 7.63999 78.7351 8.18399C78.8311 9.65599 78.5751 10.968 77.9671 12.12C77.3591 13.24 76.7351 14.648 76.0951 16.344C75.4551 18.008 74.7991 19.784 74.1271 21.672C73.4871 23.56 72.8311 25.48 72.1591 27.432C71.4871 29.384 70.8311 31.16 70.1911 32.76C68.7831 36.44 67.6311 38.472 66.7351 38.856C65.5191 39.592 64.6231 40.024 64.0471 40.152C63.3111 40.28 62.2711 40.28 60.9271 40.152C60.0951 40.088 59.3751 39.016 58.7671 36.936C58.4151 35.816 58.0951 34.264 57.8071 32.28C57.2951 28.824 56.9431 26.92 56.7511 26.568C55.4711 30.728 54.5591 33.352 54.0151 34.44C53.5031 35.528 53.1031 36.248 52.8151 36.6C52.5591 36.952 52.2391 37.416 51.8551 37.992C51.4391 39.144 50.4471 39.992 48.8791 40.536C47.5351 41.048 46.3191 41.128 45.2311 40.776C44.0471 40.392 43.6951 39.656 44.1751 38.568C44.5271 34.728 45.9031 28.664 48.3031 20.376Z" fill="#C6F7DF"/>
<path d="M94.5062 3.96001C94.8262 4.82401 95.0022 5.40001 95.0342 5.68801C95.0982 6.29601 94.8742 6.80801 94.3622 7.22401C94.3622 7.25601 94.3302 7.30401 94.2662 7.36801C94.5542 8.87201 94.6182 10.28 94.4582 11.592C94.2982 12.904 94.0902 14.168 93.8342 15.384C95.5622 12.44 96.9382 10.28 97.9622 8.90401C100.074 6.05601 102.042 4.02401 103.866 2.80801C104.474 2.45601 105.21 2.20001 106.074 2.04001C106.97 1.84801 107.818 1.81601 108.618 1.94401C109.418 2.07201 110.074 2.39201 110.586 2.90401C111.13 3.41601 111.37 4.18401 111.306 5.20801C110.41 11.448 109.45 17.272 108.426 22.68C107.402 28.056 106.074 33.192 104.442 38.088V38.184H104.394C104.01 39.336 103.05 40.152 101.514 40.632C100.01 41.08 98.6662 41.112 97.4822 40.728C96.0422 40.312 95.3862 39.544 95.5142 38.424L95.5622 37.32V37.224C95.6902 36.456 95.7542 35.944 95.7542 35.688C95.7862 35.4 95.8182 35.192 95.8502 35.064C95.9142 34.232 96.0422 33.464 96.2342 32.76C96.4582 32.024 96.6182 31.432 96.7142 30.984C96.8102 30.536 96.9062 30.12 97.0022 29.736C97.0982 29.32 97.1622 29 97.1942 28.776C95.9782 30.44 95.1142 31.448 94.6022 31.8C93.3222 32.696 91.8342 33.112 90.1382 33.048C89.0822 32.984 88.4742 32.744 88.3142 32.328C87.9942 31.432 87.7702 30.904 87.6422 30.744C87.4502 30.488 87.2902 30.056 87.1622 29.448C86.3302 33.128 85.5142 35.736 84.7142 37.272C84.3942 37.88 84.0742 38.424 83.7542 38.904C83.3062 39.96 82.2822 40.696 80.6822 41.112C79.1782 41.528 77.7382 41.496 76.3622 41.016C74.9542 40.568 74.2822 39.768 74.3462 38.616C74.4102 37.464 74.6502 36.024 75.0662 34.296C75.4502 32.536 75.9142 30.68 76.4582 28.728C78.0902 22.552 79.2422 18.536 79.9142 16.68C80.6182 14.824 81.2102 13.368 81.6902 12.312C82.8422 9.84801 83.8662 8.05601 84.7622 6.93601C85.7542 4.92001 87.4022 3.70401 89.7062 3.28801C91.5302 2.93601 93.1302 3.16001 94.5062 3.96001Z" fill="white"/>
<path d="M135.374 6.45601C136.462 7.03201 137.15 7.88001 137.438 9.00001C136.798 12.584 136.222 16.152 135.71 19.704C135.198 23.224 134.702 26.184 134.222 28.584C133.742 30.952 133.406 32.728 133.214 33.912C133.054 35.096 132.862 36.28 132.638 37.464L132.35 38.472C132.286 38.824 132.222 39.144 132.158 39.432C132.094 39.752 132.03 40.088 131.966 40.44C131.07 41.464 129.854 41.976 128.318 41.976C126.686 41.976 125.39 41.56 124.43 40.728C123.854 40.28 123.758 39.336 124.142 37.896C124.302 37.32 124.398 36.584 124.43 35.688C124.494 34.76 124.558 33.992 124.622 33.384V33.288C123.662 33.64 122.798 34.104 122.03 34.68C121.262 35.224 120.782 35.576 120.59 35.736C120.398 35.864 120.142 35.976 119.822 36.072C119.502 36.136 119.214 36.184 118.958 36.216C118.35 36.248 117.934 36.344 117.71 36.504C115.854 39.832 114.19 41.688 112.718 42.072C111.79 42.36 110.862 42.424 109.934 42.264C109.006 42.136 108.27 41.592 107.726 40.632C106.702 39.672 106.958 37.048 108.494 32.76C109.326 30.488 110.51 27.768 112.046 24.6C113.614 21.4 115.118 18.616 116.558 16.248C119.662 11.16 123.07 6.87201 126.782 3.38401C127.39 3.12801 128.046 2.84001 128.75 2.52001C129.454 2.16801 130.142 1.97601 130.814 1.94401C131.518 1.91201 132.238 1.99201 132.974 2.18401C133.71 2.37601 134.334 2.66401 134.846 3.04801C136.03 3.94401 136.206 5.08001 135.374 6.45601ZM125.102 19.08C124.43 21 123.758 22.776 123.086 24.408C122.414 26.008 121.838 27.416 121.358 28.632L125.15 28.488C125.406 26.44 125.694 24.408 126.014 22.392C126.334 20.376 126.638 18.36 126.926 16.344L125.102 19.08ZM123.806 28.68C124.254 28.68 124.702 28.648 125.15 28.584V28.536C124.734 28.568 124.35 28.6 123.998 28.632C123.646 28.664 123.582 28.68 123.806 28.68Z" fill="white"/>
<path d="M152.627 26.712C151.763 29.208 150.883 31.608 149.987 33.912C149.091 36.216 148.339 37.96 147.731 39.144C147.155 40.36 146.643 41.192 146.195 41.64C145.747 42.088 145.283 42.392 144.803 42.552C144.355 42.712 143.891 42.776 143.411 42.744C142.963 42.712 142.499 42.68 142.019 42.648C139.331 42.232 138.499 40.296 139.523 36.84C140.195 34.088 140.739 31.848 141.155 30.12C141.571 28.36 141.907 26.92 142.163 25.8C142.451 24.648 142.691 23.704 142.883 22.968C143.075 22.2 143.283 21.448 143.507 20.712C143.731 19.976 144.003 19.144 144.323 18.216C144.675 17.288 145.123 16.056 145.667 14.52C144.451 14.68 143.363 14.552 142.403 14.136C140.995 13.528 140.419 12.216 140.675 10.2C140.803 9.27201 141.299 8.40801 142.163 7.60801C142.611 7.19201 143.139 6.74401 143.747 6.26401C144.995 5.27201 147.475 4.21601 151.187 3.09601C155.027 1.94401 158.323 1.40001 161.075 1.46401C161.811 1.33601 162.563 1.43201 163.331 1.75201C164.131 2.04001 164.771 2.44001 165.251 2.95201C165.731 3.46401 165.971 4.02401 165.971 4.63201C166.003 5.24001 165.619 5.78401 164.819 6.26401C164.435 6.52001 164.163 6.95201 164.003 7.56001C163.843 8.13601 163.667 8.76001 163.475 9.43201C163.283 10.072 162.995 10.664 162.611 11.208C162.259 11.752 161.683 12.072 160.883 12.168C160.467 12.392 159.875 12.552 159.107 12.648C158.371 12.744 157.875 12.824 157.619 12.888C157.395 12.92 157.267 13 157.235 13.128C156.659 14.824 155.971 16.888 155.171 19.32C154.371 21.72 153.523 24.184 152.627 26.712ZM146.147 13.992C146.083 13.992 146.051 14.008 146.051 14.04C146.051 14.04 146.083 14.04 146.147 14.04V13.992Z" fill="white"/>
<path d="M181.569 15.096C181.569 14.136 181.233 13.656 180.561 13.656C180.305 13.656 180.001 13.72 179.649 13.848C179.297 13.976 178.961 14.088 178.641 14.184C177.457 14.824 176.529 15.528 175.857 16.296C175.217 17.032 174.561 17.864 173.889 18.792C173.217 19.72 172.641 20.712 172.161 21.768C171.681 22.824 171.313 23.816 171.057 24.744C170.129 28.168 170.481 30.472 172.113 31.656C172.785 32.136 173.489 32.376 174.225 32.376C174.993 32.344 175.601 32.184 176.049 31.896C176.529 31.608 176.993 31.336 177.441 31.08C177.889 30.824 178.401 30.648 178.977 30.552C179.585 30.424 180.321 30.504 181.185 30.792C182.081 31.048 182.561 31.4 182.625 31.848C182.689 32.296 182.689 32.76 182.625 33.24C182.561 33.72 182.545 34.152 182.577 34.536C182.641 34.92 182.993 35.16 183.633 35.256C184.241 36.024 183.857 36.952 182.481 38.04C182.129 38.328 181.793 38.6 181.473 38.856C178.721 40.616 175.793 41.592 172.689 41.784C170.737 41.912 168.657 41.56 166.449 40.728C163.153 39.48 161.297 36.68 160.881 32.328C160.337 28.296 160.849 24.12 162.417 19.8C163.729 16.152 165.713 12.776 168.369 9.67201C170.769 6.82401 173.137 4.96801 175.473 4.10401C178.257 2.66401 181.265 2.10401 184.497 2.42401C187.921 2.87201 190.161 4.32801 191.217 6.79201C192.273 9.25601 192.097 12.216 190.689 15.672C190.209 16.888 189.297 17.848 187.953 18.552C186.801 19.192 185.553 19.512 184.209 19.512C182.865 19.512 182.001 19.096 181.617 18.264C181.233 17.4 181.217 16.344 181.569 15.096Z" fill="white"/>
<path d="M199.005 28.536L196.701 34.392C196.381 35.288 196.093 36.216 195.837 37.176C195.581 38.136 195.309 38.968 195.021 39.672C194.733 40.408 194.285 40.984 193.677 41.4C193.101 41.816 192.445 42.12 191.709 42.312C190.973 42.536 190.205 42.632 189.405 42.6C188.637 42.568 187.949 42.424 187.341 42.168C185.965 41.528 185.485 40.472 185.901 39C187.373 32.536 188.749 27.352 190.029 23.448C191.341 19.544 192.413 16.472 193.245 14.232C194.109 11.992 195.005 9.62401 195.933 7.12801C196.029 6.20001 196.413 5.36801 197.085 4.63201C197.757 3.89601 198.541 3.28801 199.437 2.80801C200.365 2.32801 201.325 1.99201 202.317 1.80001C203.309 1.57601 204.189 1.54401 204.957 1.70401C205.725 1.86401 206.285 2.21601 206.637 2.76001C207.021 3.30401 207.053 4.08801 206.733 5.11201C205.581 8.05601 204.765 10.136 204.285 11.352C203.805 12.568 203.373 13.656 202.989 14.616L201.645 17.784C202.317 17.816 203.165 17.72 204.189 17.496C206.045 17.08 207.389 16.936 208.221 17.064C208.221 16.904 208.301 16.632 208.461 16.248C209.357 12.344 210.365 8.76001 211.485 5.49601C212.285 2.80801 214.349 1.40001 217.677 1.27201C218.989 1.27201 219.981 1.59201 220.653 2.23201C221.389 2.90401 221.485 3.81601 220.941 4.96801C217.997 13.224 215.917 19.736 214.701 24.504C213.325 30.008 212.413 33.72 211.965 35.64C211.549 37.56 211.181 38.696 210.861 39.048C210.541 39.4 210.205 39.64 209.853 39.768C209.533 39.928 209.213 40.072 208.893 40.2C208.573 40.328 208.317 40.648 208.125 41.16H207.981C207.725 41.736 207.165 42.184 206.301 42.504C205.437 42.824 204.557 42.936 203.661 42.84C202.797 42.776 202.061 42.456 201.453 41.88C200.877 41.336 200.733 40.488 201.021 39.336C201.341 37.512 201.869 35.56 202.605 33.48C203.341 31.368 203.917 29.72 204.333 28.536C204.781 27.352 205.149 26.248 205.437 25.224C205.181 25.352 204.925 25.448 204.669 25.512C204.445 25.576 204.157 25.704 203.805 25.896C203.453 26.056 203.085 26.2 202.701 26.328C202.349 26.456 201.997 26.584 201.645 26.712C200.749 27.064 200.013 27.416 199.437 27.768L199.005 28.536ZM204.429 25.32C204.461 25.32 204.621 25.272 204.909 25.176C204.717 25.24 204.557 25.288 204.429 25.32Z" fill="white"/>
<path d="M226.6 32.952C228.456 33.144 229.832 33.24 230.728 33.24C231.656 33.24 233.048 33.112 234.904 32.856C235.48 33.048 235.816 33.288 235.912 33.576C236.008 33.864 236.04 34.168 236.008 34.488C235.976 34.776 235.992 35.064 236.056 35.352C236.12 35.64 236.424 35.88 236.968 36.072C237.256 36.168 237.336 36.456 237.208 36.936C237.112 37.384 236.856 37.88 236.44 38.424C235.384 39.8 234.136 40.76 232.696 41.304C230.392 41.88 228.584 42.216 227.272 42.312C225.096 42.472 222.728 42.392 220.168 42.072C217.352 41.56 215.992 40.392 216.088 38.568C216.088 31.848 217.56 25.096 220.504 18.312C221.464 16.104 222.552 13.784 223.768 11.352C224.024 10.84 224.168 10.264 224.2 9.62401C224.264 8.98401 224.312 8.36001 224.344 7.75201C224.376 7.14401 224.472 6.60001 224.632 6.12001C224.792 5.64001 225.128 5.30401 225.64 5.11201C232.296 2.45601 237.56 1.43201 241.432 2.04001C242.776 2.07201 243.656 2.53601 244.072 3.43201C244.52 4.29601 244.568 5.27201 244.216 6.36001C243.896 7.44801 243.24 8.47201 242.248 9.43201C241.288 10.392 240.072 10.984 238.6 11.208C236.712 11.752 235.56 12.12 235.144 12.312C234.344 12.696 233.768 13.208 233.416 13.848C232.968 14.552 232.552 15.224 232.168 15.864C231.784 16.504 231.512 17.192 231.352 17.928L231.16 18.984C231.768 19.272 232.504 19.368 233.368 19.272C234.264 19.144 235.08 19.032 235.816 18.936C236.584 18.808 237.192 18.792 237.64 18.888C238.12 18.984 238.216 19.464 237.928 20.328C237.672 21.16 237.176 22.104 236.44 23.16C235.736 24.216 234.728 24.984 233.416 25.464C232.584 25.624 232.008 25.752 231.688 25.848C231.4 25.912 231.176 25.96 231.016 25.992C230.792 26.024 230.152 26.072 229.096 26.136C227.592 28.696 226.68 30.68 226.36 32.088C226.232 32.664 226.312 32.952 226.6 32.952Z" fill="white"/>
<path d="M270.779 19.512C270.651 20.888 270.395 22.296 270.011 23.736C269.659 25.176 269.131 26.584 268.427 27.96C267.755 29.336 266.939 30.664 265.979 31.944C265.051 33.224 264.011 34.408 262.859 35.496C261.707 36.584 260.475 37.496 259.163 38.232C256.347 39.896 253.627 40.488 251.003 40.008C250.427 41.256 249.563 42.04 248.411 42.36C247.291 42.712 246.171 42.712 245.051 42.36C243.963 42.04 243.003 41.416 242.171 40.488C241.339 39.56 240.923 38.296 240.923 36.696C240.923 35.064 241.035 33.4 241.259 31.704C241.483 30.008 241.787 28.376 242.171 26.808C242.779 24.216 243.531 21.784 244.427 19.512C246.539 14.36 247.739 10.744 248.027 8.66401C248.443 5.88001 249.211 4.15201 250.331 3.48001C252.187 2.39201 253.947 1.92801 255.611 2.08801C257.275 2.24801 258.779 2.64801 260.123 3.28801C262.331 4.34401 264.715 6.12001 267.275 8.61601C270.091 11.336 271.259 14.968 270.779 19.512ZM251.915 33.912C253.547 33.08 254.859 32.232 255.851 31.368C256.875 30.472 257.835 29.656 258.731 28.92C260.107 27.544 261.115 25.912 261.755 24.024C263.163 19.864 262.267 16.712 259.067 14.568C258.587 14.216 257.867 13.736 256.907 13.128C256.459 14.152 256.123 15.224 255.899 16.344C255.707 17.464 255.435 18.552 255.083 19.608L253.787 23.832L252.731 28.392C252.667 29.032 252.571 29.656 252.443 30.264C252.315 30.84 252.203 31.448 252.107 32.088L251.915 33.912Z" fill="white"/>
<path d="M292.031 4.39201C292.159 4.77601 292.303 5.04801 292.463 5.20801C292.623 5.33601 292.735 5.43201 292.799 5.49601C292.959 5.65601 292.879 5.94401 292.559 6.36001C292.271 6.93601 291.871 7.60801 291.359 8.37601C290.431 9.75201 289.839 10.76 289.583 11.4C288.271 14.024 287.247 16.44 286.511 18.648C285.775 20.824 285.151 22.792 284.639 24.552C284.127 26.312 283.631 27.864 283.151 29.208C282.575 30.776 281.903 31.944 281.135 32.712C280.751 33.352 280.063 33.784 279.071 34.008C278.079 34.232 277.071 34.28 276.047 34.152C275.023 33.992 274.143 33.656 273.407 33.144C272.703 32.632 272.447 31.96 272.639 31.128C272.991 28.12 273.519 25.592 274.223 23.544C274.959 21.496 275.583 19.8 276.095 18.456C276.639 17.112 277.103 15.912 277.487 14.856C277.871 13.768 278.223 12.84 278.543 12.072C278.895 11.272 279.295 10.44 279.743 9.57601C280.191 8.68001 280.671 7.78401 281.183 6.88801C281.727 5.96001 282.271 5.11201 282.815 4.34401C284.063 2.58401 285.119 1.54401 285.983 1.22401C286.847 0.87201 287.711 0.66401 288.575 0.600011C289.471 0.53601 290.239 0.632011 290.879 0.888011C291.551 1.14401 292.015 1.56001 292.271 2.13601C292.527 2.71201 292.447 3.46401 292.031 4.39201ZM280.559 40.584C280.207 41.896 279.471 42.872 278.351 43.512C277.263 44.184 276.095 44.536 274.847 44.568C273.599 44.632 272.431 44.392 271.343 43.848C270.287 43.336 269.631 42.52 269.375 41.4C269.087 40.312 269.247 39.384 269.855 38.616C270.495 37.816 271.247 37.304 272.111 37.08C272.975 36.824 273.983 36.648 275.135 36.552C276.319 36.456 277.391 36.52 278.351 36.744C279.311 36.968 280.047 37.384 280.559 37.992C281.071 38.6 281.071 39.464 280.559 40.584Z" fill="white"/>
<path d="M19.485 34.4659L9.04689 36.5467C8.97269 36.5966 8.89503 36.6302 8.81389 36.6475C8.73274 36.6649 8.63478 36.7028 8.52001 36.7613L8.4383 36.677C7.13998 36.9548 5.97268 37.0518 4.93642 36.968C3.93379 36.8431 3.2181 36.5719 2.78932 36.1544C2.40112 35.7282 2.37113 35.1915 2.69934 34.5441C3.06813 33.8881 3.97477 33.1679 5.41929 32.3836L6.49391 32.0518C6.59732 31.147 7.23859 30.1781 8.41773 29.1449C9.63744 28.1031 11.5381 27.1702 14.1198 26.3462L17.6288 25.4935L72.5778 13.1245C73.5515 12.9162 74.5287 12.724 75.5094 12.5481C77.5695 11.666 79.7911 11.2415 82.1743 11.2747C85.0791 11.366 86.6275 12.2568 86.8195 13.9471C86.9189 14.8085 86.4272 15.8812 85.3442 17.1653C84.6961 17.5077 84.0788 17.8944 83.4921 18.3255C82.8985 18.7241 82.0684 19.2072 81.0019 19.7749C78.8954 20.8367 23.5829 33.5891 19.485 34.4659Z" fill="#C6F7DF"/>
</svg>
